#!OML:ASF F:\VICON\USERDATA\INSTALL\rory3\rory3.ASF
:FULLY-SPECIFIED
:DEGREES
978
root -2.23138 14.7665 -34.4701 -319.058 49.2815 21.4718
lowerback -21.3971 -9.51707 -0.0637194
upperback -11.6606 -12.0174 0.343204
thorax -0.904448 -5.90222 -1.984
lowerneck -2.82207 -12.0036 -10.3641
upperneck 13.8783 -16.6821 8.19774
head 6.23375 -8.16994 2.98466
rclavicle 9.71063e-014 3.81667e-014
rhumerus -43.1012 -40.8547 -55.2031
rradius 15.5
rwrist 2.62415
rhand 4.11916 8.7633
rfingers 7.12502
rthumb 29.5295 -18.9081
lclavicle 9.71063e-014 3.81667e-014
lhumerus -41.2905 8.45916 89.1844
lradius 19.1311
lwrist -32.3962
lhand 15.1464 15.3626
lfingers 7.12502
lthumb 39.9894 40.5918
rfemur -97.131 -40.3373 403.699
rtibia 63.6784
rfoot 145.079 143.664
rtoes 36.9743
lfemur -18.3546 -12.9402 -29.4712
ltibia 34.4296
lfoot -41.5305 19.5993
ltoes -26.1615
979
root -2.21759 14.7593 -34.5105 -318.443 49.4015 21.6427
lowerback -21.197 -9.20205 0.989422
upperback -12.1601 -11.7734 -0.146043
thorax -1.87196 -5.86414 -2.88619
lowerneck -2.59354 -12.1192 -10.21
upperneck 14.2002 -16.9144 8.28775
head 6.31388 -8.2718 2.97345
rclavicle -8.84592e-014 -1.00187e-013
rhumerus -42.3583 -38.5142 -57.6866
rradius 15.798
rwrist 2.03897
rhand 5.00978 8.49827
rfingers 7.12502
rthumb 30.3793 -19.0196
lclavicle -8.84592e-014 -1.00187e-013
lhumerus -42.3739 7.55255 88.8472
lradius 19.6915
lwrist -32.169
lhand 17.0945 15.0772
lfingers 7.12502
lthumb 41.8194 39.7274
rfemur -97.9177 -40.2925 404.077
rtibia 63.5172
rfoot 145.289 143.517
rtoes 37.0288
lfemur -19.1679 -13.4766 -29.5316
ltibia 34.7789
lfoot -41.5162 20.1011
ltoes -26.5524
980
root -2.21294 14.7694 -34.4892 -318.847 49.5771 21.7803
lowerback -21.3126 -9.58837 -0.329632
upperback -11.3538 -12.0854 0.647369
thorax -0.484039 -5.91205 -1.57414
lowerneck -3.6489 -12.4796 -10.5606
upperneck 13.5044 -17.1818 7.96136
head 6.30049 -8.41352 2.83716
rclavicle 8.28932e-014 3.33958e-014
rhumerus -38.6028 -36.2339 -60.6316
rradius 15.796
rwrist 1.9084
rhand 5.47174 8.09712
rfingers 7.12502
rthumb 30.8198 -19.3385
lclavicle 8.28932e-014 3.33958e-014
lhumerus -41.003 8.37473 89.6799
lradius 19.7557
lwrist -31.9287
lhand 19.1003 15.2184
lfingers 7.12502
lthumb 43.696 39.2137
rfemur -97.0362 -40.6847 403.485
rtibia 63.517
rfoot 144.815 143.677
rtoes 37.4542
lfemur -18.4435 -13.2401 -29.5764
ltibia 34.6666
lfoot -41.2825 20.2762
ltoes -27.7445
981
root -2.19872 14.7573 -34.5376 -317.893 49.934 21.9159
lowerback -21.6412 -9.34428 0.573222
upperback -11.9619 -11.8819 0.346711
thorax -1.24267 -5.86446 -2.28339
lowerneck -2.05971 -12.6518 -10.0498
upperneck 12.7821 -17.4985 7.69833
head 5.76623 -8.61613 2.78338
rclavicle 8.43841e-014 7.95139e-015
rhumerus -38.2184 -32.9236 -62.9781
rradius 16.8233
rwrist 1.70903
rhand 6.29253 12.4819
rfingers 7.12502
rthumb 31.602 -14.803
lclavicle 8.43841e-014 7.95139e-015
lhumerus -41.804 7.41662 89.5467
lradius 19.9763
lwrist -30.5587
lhand 21.2011 15.8821
lfingers 7.12502
lthumb 45.6523 39.12
rfemur -98.5566 -40.6858 404.62
rtibia 63.386
rfoot 145.122 143.649
rtoes 37.4673
lfemur -19.5413 -13.8591 -29.3824
ltibia 34.7049
lfoot -41.0402 20.5028
ltoes -27.7872
982
root -2.19817 14.7795 -34.4832 -319.01 50.1114 21.7904
lowerback -21.3094 -9.68355 -0.626634
upperback -11.3485 -12.1527 0.835454
thorax -0.37781 -5.92212 -1.24605
lowerneck -1.96234 -12.8983 -10.3017
upperneck 12.06 -17.7498 7.51861
head 5.55379 -8.76956 2.76446
rclavicle -9.21367e-014 -4.92986e-014
rhumerus -36.3401 -29.0314 -65.6837
rradius 17.5589
rwrist 0.600701
rhand 5.0467 13.8862
rfingers 7.12502
rthumb 30.4145 -13.6252
lclavicle -9.21367e-014 -4.92986e-014
lhumerus -41.2479 7.81599 89.7942
lradius 19.9926
lwrist -29.6419
lhand 23.144 17.1675
lfingers 7.12502
lthumb 47.4519 39.6321
rfemur -96.6996 -41.151 403.564
rtibia 63.4677
rfoot 144.301 143.808
rtoes 37.6486
lfemur -18.0682 -13.0825 -29.2892
ltibia 34.4012
lfoot -40.7943 20.1428
ltoes -28.5149
983
root -2.19035 14.7831 -34.4858 -319.264 50.0914 21.7195
lowerback -20.9975 -9.70131 -0.184999
upperback -11.0738 -12.2893 0.868359
thorax -0.311759 -6.01717 -1.44461
lowerneck -3.85803 -12.9734 -10.4717
upperneck 12.8252 -17.7189 7.44677
head 6.11645 -8.70243 2.61282
rclavicle -4.52235e-014 -1.90833e-014
rhumerus -34.5653 -25.5264 -68.6579
rradius 18.0446
rwrist -0.146184
rhand 4.50023 13.3147
rfingers 7.12502
rthumb 29.8932 -14.2919
lclavicle -4.52235e-014 -1.90833e-014
lhumerus -40.5267 7.81252 89.7019
lradius 20.2779
lwrist -28.2423
lhand 24.5654 18.2878
lfingers 7.12502
lthumb 48.7618 40.1372
rfemur -96.3371 -41.2277 403.331
rtibia 63.3991
rfoot 144.321 143.749
rtoes 37.5446
lfemur -17.8083 -12.874 -29.3469
ltibia 34.3455
lfoot -40.5972 20.3173
ltoes -29.1491
984
root -2.18454 14.7872 -34.4886 -319.082 50.34 21.9516
lowerback -21.0163 -9.81063 -0.346736
upperback -11.222 -12.3923 0.909638
thorax -0.425232 -6.0588 -1.32736
lowerneck -2.77529 -13.0358 -10.7979
upperneck 12.35 -17.8815 7.70309
head 5.85449 -8.8174 2.80401
rclavicle -6.64935e-014 0
rhumerus -33.8613 -21.2065 -71.1784
rradius 18.8828
rwrist -1.46762
rhand 4.38121 9.26128
rfingers 7.12502
rthumb 29.7796 -18.3657
lclavicle -6.64935e-014 0
lhumerus -40.742 7.41294 89.7804
lradius 20.5827
lwrist -27.2283
lhand 25.2793 18.412
lfingers 7.12502
lthumb 49.4175 39.9353
rfemur -96.3766 -41.5162 403.341
rtibia 63.3485
rfoot 144.343 143.663
rtoes 37.5042
lfemur -17.7177 -12.9852 -29.3461
ltibia 34.174
lfoot -40.4258 20.2934
ltoes -29.3623
985
root -2.18332 14.7868 -34.5051 -318.923 50.2597 21.9248
lowerback -21.0426 -9.32557 -0.339996
upperback -11.5316 -11.7217 0.29478
thorax -0.879375 -5.73704 -1.7941
lowerneck -0.59422 -13.3237 -10.1231
upperneck 11.5519 -18.4764 7.95018
head 5.26016 -9.13867 2.90935
rclavicle 7.68303e-014 -3.18055e-015
rhumerus -34.8123 -18.9729 -72.7368
rradius 19.8531
rwrist -2.10696
rhand 4.146 8.40556
rfingers 7.12502
rthumb 29.5551 -19.2614
lclavicle 7.68303e-014 -3.18055e-015
lhumerus -41.4208 4.7641 90.2869
lradius 21.1921
lwrist -25.4379
lhand 25.7012 19.5203
lfingers 7.12502
lthumb 49.8041 40.8453
rfemur -96.4039 -41.2566 403.203
rtibia 63.1991
rfoot 144.35 143.591
rtoes 37.7916
lfemur -18.0662 -13.0692 -29.3726
ltibia 34.3411
lfoot -40.7627 19.8309
ltoes -28.3426
986
root -2.17816 14.7871 -34.525 -318.771 50.1933 21.84
lowerback -21.5029 -9.29288 -0.49879
upperback -11.2239 -11.651 0.517016
thorax -0.233381 -5.68082 -1.57786
lowerneck -1.06004 -13.5014 -10.318
upperneck 11.2404 -18.6559 8.01913
head 5.28165 -9.21971 2.91124
rclavicle 6.65929e-014 1.74931e-014
rhumerus -33.4207 -16.4374 -74.2159
rradius 20.2104
rwrist -2.33838
rhand 1.85515 9.79984
rfingers 7.12502
rthumb 27.3661 -18.2333
lclavicle 6.65929e-014 1.74931e-014
lhumerus -40.4659 4.10025 90.9308
lradius 21.5857
lwrist -24.2083
lhand 25.8536 20.2226
lfingers 7.12502
lthumb 49.9437 41.4749
rfemur -96.5934 -41.0479 403.285
rtibia 63.0466
rfoot 144.491 143.55
rtoes 37.9285
lfemur -18.4142 -12.9841 -29.4008
ltibia 34.5209
lfoot -40.8198 19.6762
ltoes -28.1001
987
root -2.17067 14.7819 -34.5544 -318.119 50.1714 22.048
lowerback -21.4867 -9.45794 -0.359989
upperback -11.5389 -11.8929 0.912851
thorax -0.531727 -5.79857 -1.25671
lowerneck -1.66465 -13.4812 -11.0594
upperneck 11.5064 -18.5488 7.94643
head 5.51727 -9.17931 2.94287
rclavicle -5.11871e-014 -3.81667e-014
rhumerus -32.7103 -12.4017 -75.7861
rradius 20.409
rwrist -2.33157
rhand -1.34084 11.5123
rfingers 7.12502
rthumb 24.3055 -16.9668
lclavicle -5.11871e-014 -3.81667e-014
lhumerus -40.2127 4.16202 91.435
lradius 22.017
lwrist -23.0587
lhand 25.5078 20.4549
lfingers 7.12502
lthumb 49.6269 41.8713
rfemur -97.3899 -40.9224 403.627
rtibia 62.9231
rfoot 144.733 143.468
rtoes 37.8939
lfemur -19.0705 -13.2647 -29.5108
ltibia 34.6249
lfoot -40.9333 19.5635
ltoes -27.6177
988
root -2.16459 14.7862 -34.5557 -318.181 50.1158 21.9923
lowerback -21.3097 -9.1068 -0.141534
upperback -11.76 -11.4543 0.399223
thorax -1.00822 -5.60564 -1.75419
lowerneck -0.62779 -13.7319 -10.6552
upperneck 11.3395 -19.0133 8.10002
head 5.31559 -9.41441 2.97075
rclavicle -6.48038e-014 -3.18055e-014
rhumerus -33.4789 -10.8586 -76.9056
rradius 21.8902
rwrist -3.80843
rhand -0.888752 10.7553
rfingers 7.12502
rthumb 24.7388 -17.665
lclavicle -6.48038e-014 -3.18055e-014
lhumerus -40.5901 2.26099 91.552
lradius 22.0395
lwrist -21.9719
lhand 24.3619 20.0635
lfingers 7.12502
lthumb 48.5747 42.0036
rfemur -97.2668 -40.9117 403.57
rtibia 62.8302
rfoot 144.709 143.54
rtoes 37.7672
lfemur -19.0457 -13.2255 -29.5394
ltibia 34.6713
lfoot -40.9862 19.6045
ltoes -27.847
989
root -2.15415 14.7904 -34.5443 -318.278 50.3299 22.0563
lowerback -21.6549 -8.85488 -0.557762
upperback -11.8253 -11.009 0.00454743
thorax -0.906645 -5.36297 -1.90279
lowerneck 1.97158 -13.9757 -10.3431
upperneck 10.2278 -19.5261 8.44637
head 4.60189 -9.72834 3.22084
rclavicle 6.83819e-014 3.10104e-014
rhumerus -34.4667 -9.62204 -77.6157
rradius 23.256
rwrist -5.10258
rhand -0.0837658 8.72645
rfingers 7.12502
rthumb 25.5101 -19.5858
lclavicle 6.83819e-014 3.10104e-014
lhumerus -41.0413 0.0141596 92.1386
lradius 21.8938
lwrist -20.9413
lhand 22.8201 19.8277
lfingers 7.12502
lthumb 47.1526 42.4264
rfemur -97.0585 -41.2105 403.575
rtibia 62.8257
rfoot 144.489 143.665
rtoes 37.8402
lfemur -18.7499 -13.2638 -29.4098
ltibia 34.6016
lfoot -41.0701 18.9055
ltoes -26.9973
990
root -2.14672 14.8031 -34.5422 -318.302 50.343 21.9653
lowerback -21.9807 -9.29106 -0.974353
upperback -11.3973 -11.5332 0.853555
thorax -0.0250959 -5.57973 -1.01981
lowerneck 0.211605 -13.8694 -11.2143
upperneck 10.4628 -19.2134 8.29595
head 4.9992 -9.55733 3.17043
rclavicle 1.16587e-013 4.13472e-014
rhumerus -32.7167 -5.25114 -79.0543
rradius 22.5085
rwrist -4.14538
rhand -5.45107 12.4014
rfingers 7.12502
rthumb 20.36 -16.5513
lclavicle 1.16587e-013 4.13472e-014
lhumerus -39.5053 0.48186 92.9522
lradius 21.8456
lwrist -19.8738
lhand 21.1287 20.1111
lfingers 7.12502
lthumb 45.5851 43.3764
rfemur -96.9532 -41.172 403.598
rtibia 62.7404
rfoot 144.371 143.652
rtoes 37.9708
lfemur -18.8324 -12.9127 -29.4003
ltibia 34.5741
lfoot -40.2432 20.1886
ltoes -29.8115
991
root -2.1369 14.7992 -34.5626 -318.459 50.2258 21.6423
lowerback -21.9847 -8.76366 -0.616841
upperback -11.6991 -10.8783 0.322738
thorax -0.525012 -5.27923 -1.57972
lowerneck 2.10418 -14.1024 -10.6484
upperneck 9.86482 -19.675 8.41103
head 4.51005 -9.82029 3.2579
rclavicle -6.24184e-014 -9.38264e-014
rhumerus -33.7695 -4.65466 -79.6719
rradius 22.935
rwrist -3.81166
rhand -5.45632 13.1494
rfingers 7.12502
rthumb 20.3549 -15.8039
lclavicle -6.24184e-014 -9.38264e-014
lhumerus -40.1249 -2.19704 93.7594
lradius 21.9732
lwrist -18.3895
lhand 19.0866 20.2422
lfingers 7.12502
lthumb 43.6833 44.2422
rfemur -97.0825 -40.984 403.824
rtibia 62.6636
rfoot 144.596 143.644
rtoes 37.9026
lfemur -18.965 -12.8703 -29.3264
ltibia 34.5726
lfoot -40.8276 19.307
ltoes -27.6511
